<svg width="115" height="36" viewBox="0 0 115 36" fill="none" xmlns="http://www.w3.org/2000/svg">
<g clip-path="url(#clip0_1135_533)">
<path d="M16.1411 14.6863L19.7288 10.9105L23.3126 14.6863L19.7288 18.4641L16.1411 14.6863ZM27.7979 14.6863L21.9722 8.55001L25.5564 4.77014L34.9736 14.6865L19.729 30.7396L4.4861 14.6865L13.8993 4.77014L17.4869 8.55001L11.6578 14.6865L19.729 23.186L27.7979 14.6863ZM19.7288 6.18525L13.899 0.0507812L0 14.6863L19.7288 35.4626L39.4589 14.6863L25.5543 0.0507812L19.7288 6.18525Z" fill="#FFBF1F"/>
<path d="M67.4185 11.029C69.7023 11.029 71.4041 12.3975 71.4041 15.1404V24.1806H67.189V16.5133C67.189 15.2406 66.8093 14.5054 65.5648 14.5054C64.5241 14.5054 63.5848 15.2681 63.5848 17.1964V24.1806H59.3954V16.5133C59.3954 15.2406 58.9878 14.5054 57.7712 14.5054C56.7026 14.5054 55.7893 15.2681 55.7893 17.1964V24.1806H51.6001V11.3327H55.1803L55.6893 13.7961C56.2728 11.9918 57.8211 11.0288 59.623 11.0288C61.451 11.0288 62.8975 11.9659 63.4072 13.744C64.0424 12.018 65.5905 11.029 67.4185 11.029Z" fill="#FFBF1F"/>
<path d="M79.4676 24.4845C75.6078 24.4845 72.9924 22.0453 72.9924 17.754C72.9924 13.4386 75.6078 11.0293 79.4676 11.0293C83.3013 11.0293 85.9165 13.4386 85.9165 17.754C85.9165 22.0453 83.3013 24.4845 79.4676 24.4845ZM79.4676 14.0743C77.8672 14.0743 77.1561 15.3946 77.1561 17.7542C77.1561 20.1154 77.8672 21.412 79.4676 21.412C81.0417 21.412 81.7528 20.1154 81.7528 17.7542C81.7528 15.3946 81.0417 14.0743 79.4676 14.0743Z" fill="#FFBF1F"/>
<path d="M91.7245 13.7966C92.3575 12.0183 93.9058 11.0293 95.8358 11.0293C98.1491 11.0293 99.8494 12.4477 99.8494 15.193V24.1807H95.6599V16.5371C95.6599 15.2682 95.2024 14.5054 93.9839 14.5054C92.815 14.5054 91.824 15.2682 91.824 17.2246V24.1807H87.6344V11.3327H91.2166L91.7245 13.7966Z" fill="#FFBF1F"/>
<path d="M107.938 24.4845C104.08 24.4845 101.463 22.0453 101.463 17.754C101.463 13.4386 104.08 11.0293 107.938 11.0293C111.772 11.0293 114.387 13.4386 114.387 17.7562C114.387 22.0453 111.772 24.4845 107.938 24.4845ZM107.938 14.0743C106.338 14.0743 105.629 15.3946 105.629 17.7542C105.629 20.1154 106.338 21.412 107.938 21.412C109.512 21.412 110.223 20.1154 110.223 17.7542C110.223 15.3946 109.512 14.0743 107.938 14.0743Z" fill="#FFBF1F"/>
</g>
<defs>
<clipPath id="clip0_1135_533">
<rect width="114.387" height="35.4118" fill="white" transform="translate(0 0.0507812)"/>
</clipPath>
</defs>
</svg>
