<svg width="335" height="288" viewBox="0 0 335 288" fill="none" xmlns="http://www.w3.org/2000/svg">
<path d="M39.1086 192.699C38.0246 187.713 41.8231 183 46.926 183H66.5523C70.3157 183 73.5702 185.623 74.3697 189.301L85.8914 242.301C86.9754 247.287 83.1769 252 78.074 252H58.4477C54.6843 252 51.4298 249.377 50.6303 245.699L39.1086 192.699Z" fill="#9F5E44"/>
<path d="M297.337 49.7914C298.321 46.3624 301.458 44 305.026 44H324.379C329.698 44 333.536 49.0956 332.068 54.2086L309.663 132.209C308.679 135.638 305.542 138 301.974 138H282.621C277.302 138 273.464 132.904 274.932 127.791L297.337 49.7914Z" fill="#9F5E44"/>
<path d="M37.6635 49.7914C36.6786 46.3624 33.5421 44 29.9744 44H10.6213C5.30164 44 1.46363 49.0956 2.93225 54.2086L25.3365 132.209C26.3214 135.638 29.4579 138 33.0256 138H52.3787C57.6984 138 61.5364 132.904 60.0678 127.791L37.6635 49.7914Z" fill="#9F5E44"/>
<path d="M30.6816 50.7263C29.7166 46.866 31.6659 42.9222 35.3835 41.5035C72.5404 27.3239 260.838 -39.6447 305.545 41.2125C306.509 42.9559 306.694 45.0605 306.141 46.9743L238.17 282.221C237.181 285.644 234.047 288 230.484 288H96.2462C92.5753 288 89.3754 285.501 88.4851 281.94L30.6816 50.7263Z" fill="#323A45"/>
<path d="M74.7268 105.089C73.7485 101.073 75.9165 97.0091 79.8548 95.753C112.535 85.3305 251.626 44.338 268.401 95.9109C268.832 97.2368 268.801 98.7058 268.422 100.048L248.644 170.172C247.672 173.619 244.526 176 240.944 176H98.2852C94.5962 176 91.3856 173.477 90.5125 169.893L74.7268 105.089Z" fill="#9F5E44"/>
<path d="M96.1863 118.615C94.9754 114.398 97.3178 110.027 101.552 108.874C130.788 100.914 235.499 75.0138 247.388 108.848C247.867 110.211 247.759 111.724 247.304 113.094L232.535 157.524C231.448 160.794 228.389 163 224.943 163H114.955C111.387 163 108.25 160.637 107.266 157.208L96.1863 118.615Z" fill="#EDDC85"/>
<path d="M136.279 223.268C135.507 220.086 136.752 216.785 139.655 215.272C151.741 208.973 186.756 195.418 237.565 215.332C241.281 216.789 243.197 220.86 242.119 224.703L225.997 282.161C225.028 285.614 221.88 288 218.294 288H158.29C154.599 288 151.387 285.475 150.516 281.888L136.279 223.268Z" fill="#9F5E44"/>
<path d="M149.076 233.945C148.418 230.947 149.542 227.852 152.224 226.361C161.919 220.969 187.828 210.616 225.035 226.34C228.535 227.819 230.329 231.688 229.395 235.371L217.574 281.967C216.674 285.515 213.48 288 209.82 288H167.379C163.622 288 160.371 285.385 159.565 281.716L149.076 233.945Z" fill="#EDDC85"/>
<path d="M91.0669 47.9998C70.5004 38.4999 44.5 42 49 36.5C68.2 16.4999 150.501 4.49992 227.001 0.999921C279.5 -1.40193 313.435 16.9999 306.501 46.4999C305.5 52 296.567 50.9999 281.567 47.9998C266.567 44.9998 271.567 43.9998 252.567 33.4999C233.567 22.9999 228.501 43.4999 197.501 28.9999C174.652 18.3129 184.567 43.9998 160.567 47.9998C136.567 51.9998 152.501 23.4999 129.001 30.4999C102.572 38.3723 111.633 57.4998 91.0669 47.9998Z" fill="white"/>
<path d="M245.5 74.9999C219.5 66 184.667 71.4999 164.5 74.9999C162 80.4998 195 74.9999 200 77C205 79.0001 203.5 82 208 84C212.5 86 220.5 78.5 231.5 77C242.5 75.5 244 80 247 82C250 84 249 91 256 94.5C261.6 97.3 265 93.3333 266 91C267.071 88.5 264 81.9999 245.5 74.9999Z" fill="white"/>
<path d="M219.5 209.5C204.3 203.5 181.833 204.167 172.5 205.5C170.5 205.758 172.5 207.5 174.5 207.5C176.5 207.5 178.5 207 180.5 207.5C182.5 208 185.5 208 189.5 208.5C193.5 209 193 209.5 195.5 211.5C198 213.5 197 211.5 202 211.5C207 211.5 206 212 208.5 213.5C211 215 217.5 216 219.5 215.5C221.5 215 225.5 210.5 219.5 209.5Z" fill="white"/>
<path d="M319.5 50C315.1 49.2 315.333 45.6667 316 44C332.8 42.8 334.333 48.1667 333 51C333 51 323 87.5001 322 87.5C321 87.5 322 79.3 322 78.5C322 77.5 322 69.5 326 61C329.5 55 328.5 54 327.5 51C326.5 48 325 51 319.5 50Z" fill="white"/>
<path d="M103.502 54.8051L103.569 54.7795L108.867 67.2449L105.253 68.6441L103.93 64.1532L103.284 69.6338L99.0581 66.3918L98.9895 70.2856L96.0993 70.7815L95.665 58.1758L101.186 64.8367L103.461 54.8971L103.502 54.8051ZM110.576 55.9008L111.87 55.6788L112.136 55.6615L113.036 55.7903L113.321 55.8831L113.708 55.9868C116.35 57.243 117.986 59.3992 118.614 62.4555C118.998 63.9765 118.777 65.5256 117.952 67.1028C117.014 68.5673 115.586 69.1947 113.671 68.985C111.168 68.2715 109.386 66.6363 108.324 64.0795L107.87 62.2589C107.489 60.7563 107.696 59.2096 108.49 57.6187L108.94 57.0174C109.025 56.9083 109.142 56.7937 109.292 56.6737L109.349 56.593L109.776 56.2788L110.576 55.9008ZM113.228 60.2912C112.989 60.2189 112.721 60.1987 112.424 60.2307C112.178 60.339 111.939 60.5124 111.706 60.7507C111.271 61.6848 111.29 62.678 111.763 63.7302C112.134 64.8472 112.957 65.6505 114.231 66.1403C114.576 66.1662 114.917 66.0651 115.256 65.837C115.827 64.9833 115.924 64.008 115.547 62.9109C115.169 61.8047 114.395 60.9315 113.228 60.2912ZM126.287 52.9218C126.594 52.8407 126.843 52.7508 127.034 52.6519L127.284 52.6232C127.323 52.7959 127.331 52.9788 127.307 53.1717L127.296 53.6837L127.283 53.9409L127.269 54.3542L127.279 54.4941C127.256 54.5264 127.25 54.5746 127.262 54.6389L127.253 55.1646L127.24 55.3368L127.215 55.5252L127.222 55.8925C127.192 56.0487 127.188 56.2194 127.21 56.4045C127.184 56.5791 127.175 56.8025 127.184 57.0749L127.161 57.1921C127.176 57.3313 127.172 57.502 127.15 57.7041L127.155 57.8165L127.131 58.1748C127.124 58.2988 127.127 58.4212 127.138 58.5421L127.098 58.804L127.085 59.0611L127.094 59.3572C127.08 59.5011 127.083 59.6236 127.1 59.7245C127.075 59.7476 127.071 59.8333 127.087 59.9817L127.081 60.1952C127.065 60.3208 127.05 60.4226 127.035 60.5007C127.051 60.6491 127.047 60.8198 127.023 61.0127L127.025 61.2675L127.012 61.5247L126.983 62.2663L126.978 62.4799L126.962 62.6383C126.977 62.7775 126.973 62.9482 126.951 63.1503L126.934 63.9608L126.924 64.1468L126.904 64.3627L126.928 64.5003L126.881 64.8058L126.889 65.1019L126.888 65.4279L126.871 65.6576L126.835 66.273L126.861 66.4244C126.826 66.5531 126.82 66.71 126.843 66.895L126.832 67.081C126.817 67.1592 126.815 67.2587 126.826 67.3795L126.786 67.6414L126.781 67.9399L126.319 67.3957L126.239 67.3387C125.915 66.9408 125.615 66.5956 125.338 66.3031L125.26 66.1749C125.011 65.9343 124.794 65.6881 124.609 65.4365L124.542 65.3771L124.447 65.2375L124.115 64.8695L123.981 64.7508L123 63.5732L122.919 63.5162L122.487 62.9811L122.365 62.8462L122.43 63.0617L122.498 63.3759C122.569 63.5148 122.609 63.6355 122.617 63.738L122.668 63.8709L122.722 64.0176C122.773 64.2071 122.816 64.3462 122.85 64.4348L122.904 64.5815L123.137 65.3632C123.176 65.4793 123.213 65.5579 123.248 65.5991L123.26 65.7528C123.322 65.8367 123.361 65.9529 123.377 66.1012C123.442 66.2601 123.498 66.4488 123.545 66.6675L123.651 66.8759L123.661 67.0158L123.897 67.7264C123.958 67.8669 124.019 68.0548 124.078 68.2902L124.19 68.6111L124.246 68.8565L123.829 68.9847L123.717 68.9898L123.112 69.1787L122.907 69.2279L122.756 69.2538L122.582 69.3121C122.177 69.4288 121.833 69.5161 121.55 69.5741L121.376 69.6323L121.16 69.6976L121.078 69.3009L121.008 69.0579L120.95 68.7987L120.879 68.5557C120.834 68.3463 120.799 68.1681 120.774 68.0213L120.734 67.9573C120.683 67.7111 120.65 67.5184 120.635 67.3792C120.559 67.2128 120.509 66.9995 120.483 66.7395L120.41 66.4827L120.359 66.3498L120.096 65.0632L120.054 64.9853L120.026 64.7352C119.993 64.7124 119.962 64.6376 119.93 64.5107C119.908 64.3823 119.889 64.2439 119.873 64.0955L119.834 64.0314L119.81 63.8088L119.75 63.7058L119.721 63.4557C119.69 63.3855 119.669 63.2899 119.658 63.1691L119.585 62.9123L119.377 62.0272L119.353 61.8896L119.3 61.7429L119.271 61.4928C119.204 61.3248 119.158 61.1107 119.132 60.8507L119.06 60.5939L119.009 60.461L118.985 60.2384L118.925 60.1354L118.84 59.64L118.757 59.2432L118.685 58.9864L118.627 58.8123C118.605 58.6272 118.554 58.3902 118.477 58.1013L118.458 57.9912L118.375 57.5945L118.305 57.3515L118.249 57.1061L118.223 56.9547C118.181 56.7636 118.139 56.6008 118.097 56.4663L118.071 56.3149L117.942 55.8128L117.925 55.6315L117.867 55.4573L117.787 55.0744C117.945 55.17 118.108 55.3215 118.276 55.5289L118.73 55.9468L118.818 56.0451C118.927 56.1303 119.052 56.2506 119.192 56.406L119.517 56.7327C119.575 56.7983 119.671 56.8858 119.803 56.9954L120.013 57.2285L120.149 57.361L120.589 57.7813L121.051 58.2405L121.214 58.3683L121.627 58.7933L121.913 59.056C122.03 59.187 122.127 59.2838 122.204 59.3461L122.787 59.9402C122.9 60.0438 122.999 60.1305 123.087 60.2005L123.703 60.8174L123.874 60.9864C124.009 61.1144 124.115 61.2095 124.192 61.2719L124.653 61.7311L124.858 61.9367L124.581 59.5758C124.586 59.386 124.568 59.1435 124.527 58.8484L124.278 56.6526L124.281 56.4253L123.97 53.7868C124.133 53.6927 124.311 53.6245 124.502 53.5823C124.641 53.5112 124.841 53.4391 125.102 53.3659C125.237 53.3239 125.408 53.2519 125.618 53.1499L125.771 53.1377L126.113 52.98L126.287 52.9218ZM130.477 52.4863L131.77 52.2643L132.037 52.2469L132.937 52.3758L133.222 52.4686L133.608 52.5723C136.251 53.8284 137.887 55.9846 138.515 59.041C138.899 60.5619 138.678 62.111 137.853 63.6883C136.914 65.1528 135.487 65.7802 133.572 65.5705C131.069 64.857 129.287 63.2218 128.225 60.6649L127.771 58.8444C127.39 57.3418 127.597 55.795 128.391 54.2042L128.841 53.6029C128.926 53.4938 129.043 53.3792 129.192 53.2591L129.249 53.1785L129.677 52.8643L130.477 52.4863ZM133.128 56.8767C132.889 56.8043 132.621 56.7842 132.325 56.8162C132.079 56.9245 131.839 57.0978 131.606 57.3362C131.172 58.2703 131.191 59.2634 131.664 60.3156C132.035 61.4326 132.858 62.236 134.132 62.7258C134.476 62.7517 134.818 62.6506 135.157 62.4224C135.728 61.5688 135.825 60.5934 135.448 59.4964C135.069 58.3902 134.296 57.5169 133.128 56.8767Z" fill="white"/>
<path d="M70.5 60.5L66.7021 75.0582L83.5732 84.5L91.6273 64.8833L82.5058 57.8276L73.2237 71.217L79.5518 73.7215L82.5058 68.5L70.5 60.5Z" stroke="white" stroke-width="2.52758"/>
</svg>
